<svg width="557" height="207" viewBox="0 0 557 207" fill="none" xmlns="http://www.w3.org/2000/svg">
<path d="M501.24 81.4283L547.11 98.6183C547.11 98.6183 547.2 98.7883 547.88 97.7683L550.51 98.4783C550.84 98.5683 551.18 98.4183 551.34 98.1283C551.94 97.0083 553.27 94.0583 553.28 90.0283C553.28 89.7083 553.05 89.4283 552.74 89.3483L550.26 88.7483V87.2183L446.17 48.2383C448.11 50.7783 450.06 53.3183 452 55.8583" stroke="white" stroke-width="2" stroke-miterlimit="10"/>
<path d="M495.04 79.2383C497.26 80.0183 499.48 80.8083 501.7 81.5883" stroke="white" stroke-width="2" stroke-miterlimit="10"/>
<path d="M406.29 47.3087C406.32 47.2887 410.31 51.7887 418.26 60.8287" stroke="white" stroke-width="2" stroke-miterlimit="10"/>
<path d="M419.45 62.5287C410.65 52.4087 406.43 47.4987 406.45 47.4688" stroke="white" stroke-width="2" stroke-miterlimit="10"/>
<path d="M407.42 70.2112C414.53 69.8712 418.82 63.5113 419.46 62.5312" stroke="white" stroke-width="2" stroke-miterlimit="10"/>
<path d="M402.61 69.5078C403.9 70.0078 405.55 70.2978 407.42 70.2078" stroke="white" stroke-width="2" stroke-miterlimit="10"/>
<path d="M397.16 60.8281C397.16 60.8281 393.68 65.9581 402.87 69.5981" stroke="white" stroke-width="2" stroke-miterlimit="10"/>
<path d="M406.46 47.4805L397.09 60.9305" stroke="white" stroke-width="2" stroke-miterlimit="10"/>
<path d="M404.9 38.8711C404.88 40.8411 405.05 43.9311 406.45 47.4711" stroke="white" stroke-width="2" stroke-miterlimit="10"/>
<path d="M405.84 33.9414C404.96 35.3414 404.91 37.1814 404.88 39.3314" stroke="white" stroke-width="2" stroke-miterlimit="10"/>
<path d="M413.88 30.4609C413.05 30.4609 408 30.4809 405.84 33.9409" stroke="white" stroke-width="2" stroke-miterlimit="10"/>
<path d="M423.21 34.291C422.15 33.681 418.26 30.441 413.75 30.461" stroke="white" stroke-width="2" stroke-miterlimit="10"/>
<path d="M435.63 40.5703C430.8 37.5803 427.12 35.7203 422.88 34.0703" stroke="white" stroke-width="2" stroke-miterlimit="10"/>
<path d="M446.35 48.4981C443.47 45.9881 439.91 43.2281 435.63 40.5781" stroke="white" stroke-width="2" stroke-miterlimit="10"/>
<path d="M456.22 151.038C456.22 151.038 433.75 130.778 436.48 99.2981C436.48 99.2981 441.42 79.6281 429.84 70.2281C418.27 60.8281 418.27 60.8281 418.27 60.8281" stroke="white" stroke-width="2" stroke-miterlimit="10"/>
<path d="M547.88 97.77C547.88 97.77 550.52 93.51 550.26 88.75" stroke="white" stroke-width="2" stroke-miterlimit="10"/>
<path d="M501.11 68.6396C500.94 66.8596 500.48 64.4696 499.3 61.8896C496.79 56.3996 492.55 53.4796 490.6 52.3196C490.6 52.3196 481.58 42.2796 477.66 38.5296L468.13 29.6796C468.13 29.6796 463.7 23.7196 453.66 26.9596C453.66 26.9596 439.19 28.7796 432.04 25.9996C423.04 22.4996 414.99 23.8996 412.1 27.8996C411.32 28.9796 411.08 30.1396 411 30.9396" stroke="white" stroke-width="2" stroke-miterlimit="10"/>
<path d="M406.64 33.0209C406.68 32.6109 403.5 31.0009 392.49 30.7109L391.44 34.7209C400.05 39.2809 400.91 39.7909 404.6 40.0409" stroke="white" stroke-width="2" stroke-miterlimit="10"/>
<path d="M391.62 31.4707C392.66 30.9107 387.25 30.0407 386.77 31.0107C386.21 32.1607 390.9 34.1107 391.11 34.4407" stroke="white" stroke-miterlimit="10"/>
<path d="M404.97 41.4009C405.08 41.5809 405.04 41.5109 405.15 41.6809C407.89 45.8109 411.63 47.6509 414.06 46.6609C414.56 46.4609 415.46 45.9409 416.22 44.4909C416.22 44.4909 418.94 40.2309 422.86 38.8709C423.06 38.7709 424.07 38.2009 424.3 37.1109C424.57 35.8609 424.65 35.0909 422.7 33.9609" stroke="white" stroke-width="2" stroke-miterlimit="10"/>
<path d="M406.05 48.6602C406.23 49.6902 406.4 51.1601 406.31 52.9301C406.24 54.3901 406.12 56.8002 404.82 59.3002C404.51 59.8902 402.07 64.6101 399.35 64.1501C398.12 63.9401 397.3 62.7601 396.86 61.9301" stroke="white" stroke-width="2" stroke-miterlimit="10"/>
<path d="M423.54 65.1094C423.45 65.6694 423.27 66.5394 422.83 67.5094C422.01 69.3294 421.05 69.8894 420.14 71.3794C419.06 73.1494 418.88 74.8894 418.82 75.5694C418.82 75.5694 418.5 78.9894 420.56 82.6994C420.88 83.2694 421.3 83.9594 421.3 83.9594C421.3 83.9594 421.47 84.2294 421.64 84.5094C422.06 85.1694 428.12 91.1494 436.73 99.0394" stroke="white" stroke-width="2" stroke-miterlimit="10"/>
<path d="M436.79 112.698C436.79 112.698 435.68 112.008 434.04 110.738C428.86 106.708 418.46 96.8278 421.63 84.5078" stroke="white" stroke-width="2" stroke-miterlimit="10"/>
<path d="M432.32 109.328C432.4 111.258 432.57 113.328 432.86 115.508C433.34 119.168 434.06 122.458 434.85 125.338C434.85 125.338 427.06 146.908 445.06 168.228L449.66 176.138C451.53 185.588 453.4 195.028 455.28 204.478" stroke="white" stroke-width="2" stroke-miterlimit="10"/>
<path d="M498.14 77.1983C500.23 77.1483 502.03 78.2183 503.85 79.1183C505.86 80.0983 507.95 80.9383 510.08 81.6083C514.1 82.8683 518.25 83.6183 522.37 84.4883C526.52 85.3583 530.56 86.4383 534.49 88.0483C538.61 89.7383 542.72 91.5083 547.26 91.4083C547.26 89.7383 547.26 88.0783 547.26 86.4083C545.92 86.5583 544.78 86.0083 543.56 85.5183C542.24 84.9883 540.91 84.6683 539.51 84.4083C537.53 84.0383 534.86 83.7883 533.74 81.8483C532.13 79.0583 527.81 81.5783 529.42 84.3683C531.09 87.2583 534.18 88.4583 537.3 89.0583C538.91 89.3683 540.49 89.6483 542.02 90.2483C543.72 90.9183 545.38 91.6183 547.26 91.4083C548.6 91.2583 549.76 90.3683 549.76 88.9083C549.76 87.5783 548.62 86.3783 547.26 86.4083C542.91 86.4983 538.94 84.4683 535 82.8983C531.07 81.3283 526.97 80.3483 522.84 79.4883C518.72 78.6383 514.58 77.8583 510.58 76.5283C506.46 75.1483 502.61 72.0983 498.13 72.2183C494.92 72.2783 494.91 77.2783 498.14 77.1983Z" fill="white"/>
<path d="M531.16 85.2383C534.38 85.2383 534.38 80.2383 531.16 80.2383C527.94 80.2383 527.93 85.2383 531.16 85.2383Z" fill="white"/>
<path d="M536.29 94.3196C536.42 94.4096 536.54 94.4896 536.67 94.5796C537.36 95.0196 538.1 95.2596 538.9 95.2896C539.7 95.4696 540.5 95.4296 541.29 95.1796C542.07 94.9896 542.75 94.6396 543.33 94.1096C543.98 93.6896 544.5 93.1296 544.88 92.4296C545.08 91.9496 545.28 91.4696 545.48 90.9996C545.77 89.9396 545.77 88.8696 545.48 87.8096C545.28 87.3296 545.08 86.8496 544.88 86.3796C544.35 85.4796 543.63 84.7596 542.73 84.2296C542.6 84.1396 542.48 84.0596 542.35 83.9696C541.66 83.5296 540.92 83.2896 540.12 83.2596C539.32 83.0796 538.52 83.1196 537.73 83.3696C536.95 83.5596 536.27 83.9096 535.69 84.4396C535.04 84.8596 534.52 85.4196 534.14 86.1196C533.94 86.5996 533.74 87.0796 533.54 87.5496C533.25 88.6096 533.25 89.6796 533.54 90.7396C533.74 91.2196 533.94 91.6996 534.14 92.1696C534.67 93.0696 535.38 93.7896 536.29 94.3196Z" fill="white"/>
<path d="M540.09 95.3789C547.81 95.3789 547.82 83.3789 540.09 83.3789C532.37 83.3789 532.36 95.3789 540.09 95.3789Z" fill="white"/>
<path d="M538.51 95.131C539.5 95.471 540.49 95.851 541.46 96.261C540.98 96.061 540.5 95.861 540.03 95.661C540.29 95.771 540.56 95.891 540.82 96.001C542.34 96.681 543.77 97.071 545.44 96.601C546.83 96.221 548.34 95.141 549.03 93.841C549.77 92.451 550.13 90.761 549.63 89.221C549.18 87.831 548.27 86.261 546.87 85.631C545.17 84.881 543.46 84.161 541.7 83.561C540.28 83.071 538.34 83.431 537.08 84.161C535.84 84.891 534.65 86.321 534.32 87.751C533.56 91.091 535.33 94.041 538.51 95.131Z" fill="white"/>
<path d="M546.22 98.3984C548.79 98.3984 548.8 94.3984 546.22 94.3984C543.65 94.3984 543.64 98.3984 546.22 98.3984Z" fill="white"/>
<path d="M546.73 97C549.3 97 549.31 93 546.73 93C544.16 93 544.15 97 546.73 97Z" fill="white"/>
<path d="M536.42 83.8606C531.47 80.4306 524.68 79.0706 519.05 77.1006C512.53 74.8306 506.02 72.5606 499.5 70.2906C493.41 68.1706 490.79 77.8206 496.84 79.9306C502.74 81.9906 508.63 84.0406 514.53 86.1006C519.88 87.9706 526.71 89.2706 531.37 92.5006C536.68 96.1606 541.68 87.5006 536.42 83.8606Z" fill="white"/>
<path d="M535.5 91.9492C541.93 91.9492 541.95 81.9492 535.5 81.9492C529.06 81.9492 529.05 91.9492 535.5 91.9492Z" fill="white"/>
<path d="M522.48 86.8516C528.91 86.8516 528.93 76.8516 522.48 76.8516C516.04 76.8516 516.03 86.8516 522.48 86.8516Z" fill="white"/>
<path d="M517.37 85.0586C523.8 85.0586 523.82 75.0586 517.37 75.0586C510.94 75.0586 510.92 85.0586 517.37 85.0586Z" fill="white"/>
<path d="M515.07 83.9102C521.5 83.9102 521.52 73.9102 515.07 73.9102C508.64 73.9102 508.63 83.9102 515.07 83.9102Z" fill="white"/>
<path d="M511.24 82.5078C517.67 82.5078 517.69 72.5078 511.24 72.5078C504.81 72.5078 504.8 82.5078 511.24 82.5078Z" fill="white"/>
<path d="M506.26 80.9805C512.69 80.9805 512.71 70.9805 506.26 70.9805C499.83 70.9805 499.82 80.9805 506.26 80.9805Z" fill="white"/>
<path d="M499.62 78.6797C506.05 78.6797 506.07 68.6797 499.62 68.6797C493.19 68.6797 493.18 78.6797 499.62 78.6797Z" fill="white"/>
<path d="M501.54 79.3203C507.97 79.3203 507.99 69.3203 501.54 69.3203C495.11 69.3203 495.09 79.3203 501.54 79.3203Z" fill="white"/>
<path d="M495.2 67.9183C495.6 67.7783 495.67 67.7383 495.42 67.7783C495.64 67.7483 495.86 67.7183 496.08 67.6883C495.99 67.6983 495.91 67.6883 495.82 67.6783C496.04 67.7083 496.26 67.7383 496.48 67.7683C496.42 67.7583 496.35 67.7283 496.28 67.7183C496.01 67.6783 496.59 67.8383 496.55 67.8383C496.42 67.8383 496.22 67.6483 496.11 67.5783C495.84 67.3983 495.57 67.2083 495.29 67.0383C494.7 66.6783 494.09 66.3583 493.46 66.0883C492.12 65.4883 490.65 64.8683 489.19 64.6383C487.75 64.4083 486.24 64.8183 485.52 66.2083C485.09 67.0283 485.06 67.9283 485.42 68.7683C485.71 69.4683 486.23 69.9283 486.85 70.3583C487.1 70.5383 487.38 70.6683 487.66 70.8183C487.79 70.8883 487.91 70.9583 488.03 71.0283C488.1 71.0683 488.31 71.2283 488.01 70.9983C487.7 70.7683 487.95 70.9683 488.01 71.0283C488.06 71.0783 488.1 71.1383 488.14 71.1783C487.75 70.8283 487.87 70.8183 487.99 70.9983C488.06 71.1083 488.14 71.2283 488.21 71.3383C488.47 71.7483 488.74 72.1383 489.05 72.5183C489.48 73.0583 490.08 73.3983 490.56 73.8783C490.63 73.9483 491.05 74.4483 490.79 74.1183C490.54 73.7983 490.87 74.2483 490.93 74.3483C491.14 74.6783 491.33 75.0183 491.52 75.3583C492.15 76.5083 493.82 76.9783 494.94 76.2583C496.1 75.5083 496.51 74.0683 495.84 72.8383C495.38 72.0083 494.89 71.2083 494.25 70.4983C493.99 70.2083 493.7 69.9783 493.39 69.7383C493.24 69.6183 493.09 69.5083 492.95 69.3783C492.88 69.3183 492.49 68.8583 492.78 69.2283C493.07 69.5983 492.72 69.1083 492.67 69.0383C492.57 68.8883 492.48 68.7283 492.38 68.5783C492.1 68.1383 491.78 67.6983 491.4 67.3483C490.99 66.9783 490.54 66.6783 490.05 66.4283C489.88 66.3383 489.71 66.2583 489.55 66.1583C489.47 66.1083 489.39 66.0583 489.31 65.9983C489.7 66.2283 489.96 66.5683 490.07 67.0383C490.1 67.2583 490.13 67.4783 490.16 67.6983C490.16 67.6583 490.15 67.6183 490.15 67.5783C490.12 67.7983 490.09 68.0183 490.06 68.2383C489.95 68.6183 489.71 68.8883 489.33 69.0483C488.69 69.4083 488.55 69.5483 488.91 69.4483C488.69 69.4783 488.47 69.5083 488.25 69.5383C488.34 69.5283 488.44 69.5283 488.53 69.5383C488.31 69.5083 488.09 69.4783 487.87 69.4483C488.61 69.5583 489.35 69.8183 490.05 70.0583C490.24 70.1283 490.44 70.1983 490.63 70.2683C490.82 70.3383 491.38 70.6683 490.74 70.2983C491.07 70.4883 491.44 70.6083 491.78 70.7883C492.46 71.1383 493.07 71.5583 493.72 71.9683C494.99 72.7683 496.37 72.8983 497.72 72.2383C498.9 71.6683 499.31 69.8883 498.62 68.8183C497.84 67.6083 496.46 67.3083 495.2 67.9183Z" fill="white"/>
<path d="M520.31 85.8789C523.53 85.8789 523.53 80.8789 520.31 80.8789C517.09 80.8789 517.08 85.8789 520.31 85.8789Z" fill="white"/>
<path d="M484.69 67.8789C487.91 67.8789 487.91 62.8789 484.69 62.8789C481.47 62.8789 481.47 67.8789 484.69 67.8789Z" fill="white"/>
<path d="M485.33 67.8789C488.55 67.8789 488.55 62.8789 485.33 62.8789C482.11 62.8789 482.1 67.8789 485.33 67.8789Z" fill="white"/>
<path d="M482.65 67.1094C485.87 67.1094 485.87 62.1094 482.65 62.1094C479.43 62.1094 479.42 67.1094 482.65 67.1094Z" fill="white"/>
<path d="M480.48 65.8398C483.7 65.8398 483.7 60.8398 480.48 60.8398C477.26 60.8398 477.25 65.8398 480.48 65.8398Z" fill="white"/>
<path d="M477.8 64.4297C481.02 64.4297 481.02 59.4297 477.8 59.4297C474.58 59.4297 474.57 64.4297 477.8 64.4297Z" fill="white"/>
<path d="M475.88 62.5391C477.81 62.5391 477.81 59.5391 475.88 59.5391C473.95 59.5391 473.95 62.5391 475.88 62.5391Z" fill="white"/>
<path d="M474.22 62.0312C476.15 62.0312 476.15 59.0312 474.22 59.0312C472.29 59.0312 472.29 62.0312 474.22 62.0312Z" fill="white"/>
<path d="M472.56 61.0078C474.49 61.0078 474.49 58.0078 472.56 58.0078C470.63 58.0078 470.63 61.0078 472.56 61.0078Z" fill="white"/>
<path d="M470.9 60.6211C472.83 60.6211 472.83 57.6211 470.9 57.6211C468.97 57.6211 468.97 60.6211 470.9 60.6211Z" fill="white"/>
<path d="M469.24 59.7305C471.17 59.7305 471.17 56.7305 469.24 56.7305C467.31 56.7305 467.31 59.7305 469.24 59.7305Z" fill="white"/>
<path d="M467.2 58.8398C469.13 58.8398 469.13 55.8398 467.2 55.8398C465.27 55.8398 465.27 58.8398 467.2 58.8398Z" fill="white"/>
<path d="M464.77 57.9414C466.7 57.9414 466.7 54.9414 464.77 54.9414C462.84 54.9414 462.84 57.9414 464.77 57.9414Z" fill="white"/>
<path d="M462.48 57.0508C464.41 57.0508 464.41 54.0508 462.48 54.0508C460.55 54.0508 460.54 57.0508 462.48 57.0508Z" fill="white"/>
<path d="M460.82 56.5391C462.75 56.5391 462.75 53.5391 460.82 53.5391C458.89 53.5391 458.88 56.5391 460.82 56.5391Z" fill="white"/>
<path d="M458.9 55.8984C460.83 55.8984 460.83 52.8984 458.9 52.8984C456.97 52.8984 456.97 55.8984 458.9 55.8984Z" fill="white"/>
<path d="M455.58 55.2578C457.51 55.2578 457.51 52.2578 455.58 52.2578C453.65 52.2578 453.65 55.2578 455.58 55.2578Z" fill="white"/>
<path d="M456.73 55.5195C458.66 55.5195 458.66 52.5195 456.73 52.5195C454.8 52.5195 454.8 55.5195 456.73 55.5195Z" fill="white"/>
<path d="M453.8 54.5C455.73 54.5 455.73 51.5 453.8 51.5C451.86 51.5 451.86 54.5 453.8 54.5Z" fill="white"/>
<path d="M452.14 54.5C454.07 54.5 454.07 51.5 452.14 51.5C450.21 51.5 450.2 54.5 452.14 54.5Z" fill="white"/>
<path d="M451.11 53.2188C453.04 53.2188 453.04 50.2188 451.11 50.2188C449.18 50.2188 449.18 53.2188 451.11 53.2188Z" fill="white"/>
<path d="M450.09 52.3281C452.02 52.3281 452.02 49.3281 450.09 49.3281C448.16 49.3281 448.16 52.3281 450.09 52.3281Z" fill="white"/>
<path d="M452.52 55.5195C454.45 55.5195 454.45 52.5195 452.52 52.5195C450.59 52.5195 450.58 55.5195 452.52 55.5195Z" fill="white"/>
<path d="M489.54 72.5117C489.94 73.1817 505.68 92.3417 515.07 100.942" stroke="white" stroke-width="2" stroke-miterlimit="10"/>
<path d="M544.41 107.172C544.18 108.422 543.95 109.682 543.63 110.912C543.8 109.772 544.03 108.632 544.25 107.502" stroke="white" stroke-width="2" stroke-miterlimit="10"/>
<path d="M555.84 201.449C541.74 172.379 537.74 138.379 544.29 107.449" stroke="white" stroke-width="2" stroke-miterlimit="10"/>
<path d="M461.73 85.1898C458.71 82.6998 453.74 76.0698 449.66 71.5898C450.87 73.0798 453.77 75.9698 449.66 71.5898" stroke="white" stroke-width="2" stroke-miterlimit="10"/>
<path d="M450.31 72.2923C450.14 72.1023 446.33 68.8123 446.66 63.9123C446.9 60.2623 449.14 57.9623 449.73 57.3923C451.73 55.3923 455.73 54.3923 457.73 55.3923C469.73 58.3923 489.04 71.0923 489.71 72.7823" stroke="white" stroke-width="2" stroke-miterlimit="10"/>
<path d="M461.62 85.1016C461.84 85.2616 473.19 94.5016 473.19 94.5016C484.76 103.902 479.83 123.572 479.83 123.572C477.11 155.062 499.57 175.312 499.57 175.312C499.57 175.312 502.65 198.482 506.22 206.482" stroke="white" stroke-width="2" stroke-miterlimit="10"/>
<path d="M541.27 83.9007C532.17 71.9807 522.17 61.9807 510.17 51.9807C504.17 47.9807 496.48 49.9107 489.39 51.5307" stroke="white" stroke-width="2" stroke-miterlimit="10"/>
<path d="M544.19 107.93C545.06 104.89 545.54 101.73 545.57 98.5703" stroke="white" stroke-width="2" stroke-miterlimit="10"/>
<path d="M446.81 66.2013C450.21 70.5013 454.63 72.2813 457.43 70.9313C458 70.6513 458.86 70.0813 459.59 68.7613C459.59 68.7613 462.31 64.5013 466.23 63.1413C466.4 63.0513 467.34 62.5413 467.67 61.3813C467.73 61.1713 468.12 59.8513 467.26 58.9413C466.33 58.5313 466.03 58.2213 465.58 58.2613" stroke="white" stroke-width="2" stroke-miterlimit="10"/>
<path d="M6.16 43.4892V6.81921H0.0100098V0.699219H17.48C22.61 0.699219 26.46 1.05922 29.01 1.78922C31.56 2.51922 33.7 4.15922 35.43 6.72922C37.16 9.29922 38.01 12.3292 38.01 15.8192C38.01 18.6092 37.44 21.1092 36.3 23.3292C35.16 25.5392 33.76 27.1792 32.08 28.2292C30.4 29.2792 28.52 29.9892 26.42 30.3592C24.32 30.7192 21.15 30.8992 16.91 30.8992H13.53V43.4892H19.86V49.6092H0V43.4892H6.16ZM13.54 24.9992H17.76C22.56 24.9992 25.89 24.3092 27.74 22.9392C29.59 21.5692 30.52 19.1492 30.52 15.6792C30.52 13.4792 30.03 11.6492 29.04 10.1992C28.06 8.74922 26.84 7.8192 25.38 7.4192C23.93 7.0192 21.5 6.81921 18.1 6.81921H13.53V24.9992H13.54Z" fill="white"/>
<path d="M76.29 34.2806H47.67C48.09 37.4206 49.33 39.9606 51.4 41.9106C53.46 43.8606 56.1 44.8306 59.31 44.8306C63.97 44.8306 67.66 42.9506 70.38 39.2106L76.29 41.8106C74.37 44.7906 71.87 47.0006 68.8 48.4406C65.73 49.8806 62.52 50.6006 59.17 50.6006C53.97 50.6006 49.52 48.9806 45.83 45.7306C42.14 42.4806 40.29 38.1106 40.29 32.6006C40.29 27.3706 42.09 23.0706 45.69 19.7006C49.29 16.3206 53.42 14.6406 58.08 14.6406C62.65 14.6406 66.79 16.2906 70.51 19.5806C74.22 22.8606 76.15 27.7706 76.29 34.2806ZM69.4 29.4306C68.93 27.0406 67.69 24.8806 65.67 22.9406C63.65 21.0106 61.18 20.0406 58.25 20.0406C55.58 20.0406 53.29 20.9106 51.39 22.6606C49.49 24.4106 48.33 26.6606 47.91 29.4306H69.4Z" fill="white"/>
<path d="M93.55 15.5811C93.55 16.7011 93.46 15.9811 93.46 18.6411C93.42 14.0011 101.75 15.0512 105.29 15.0512C107.49 15.0512 109.32 15.5711 110.76 16.6111C112.2 17.6511 113.14 18.9312 113.59 20.4412C114.03 21.9511 114.26 24.1612 114.26 27.0712V43.6612H119.99V49.6012H107.58V27.3512C107.58 24.7712 107.19 23.0911 106.42 22.3111C105.65 21.5211 104.7 21.1312 103.57 21.1312C92.91 20.2312 93.55 25.4512 93.55 25.4512V43.6612H99.42V49.6012H80.89V43.6612H86.87V21.5112H80.89V15.5712H93.55V15.5811Z" fill="white"/>
<path d="M155.04 15.5811V28.4511H149.06C148.76 25.9911 147.75 24.1011 146.05 22.7911C144.35 21.4811 142.38 20.8211 140.13 20.8211C137.13 20.8211 134.69 21.8811 132.82 24.0011C130.94 26.1211 130.01 28.9011 130.01 32.3511C130.01 35.5611 130.9 38.3911 132.68 40.8411C134.46 43.2911 137.04 44.5111 140.41 44.5111C145.1 44.5111 148.5 42.2811 150.61 37.8311L156.13 40.4311C153.08 47.2011 147.75 50.5911 140.13 50.5911C134.74 50.5911 130.5 48.7511 127.4 45.0711C124.31 41.3911 122.76 37.1511 122.76 32.3411C122.76 27.2111 124.45 22.9711 127.82 19.6311C131.19 16.2911 135.09 14.6211 139.49 14.6211C143.26 14.6211 146.45 15.7311 149.05 17.9611V15.5711H155.04V15.5811Z" fill="white"/>
<path d="M165.38 43.67V21.52H160.11V15.58H172.06V43.67H177.33V49.61H160.1V43.67H165.38ZM164.43 4.01001C164.43 2.93001 164.81 1.99001 165.57 1.20001C166.33 0.400012 167.3 0 168.47 0C169.57 0 170.52 0.390004 171.32 1.16C172.12 1.93 172.52 2.88001 172.52 4.01001C172.52 5.14001 172.12 6.09 171.32 6.88C170.52 7.67 169.57 8.06 168.47 8.06C167.35 8.06 166.39 7.66 165.6 6.86C164.82 6.06 164.43 5.11001 164.43 4.01001Z" fill="white"/>
<path d="M186.26 43.6709V6.65094H180.21V0.710938H192.94V43.6709H198.14V49.6109H180.21V43.6709H186.26Z" fill="white"/>
<path d="M235.58 50.1011L223.12 6.82109H217.25V0.701096L228.65 0.811081L230.12 6.91109L230.09 6.81108L239.35 38.8011L248.24 6.81108L248.25 6.75108L250.1 0.791092L257.04 0.741089L259.13 6.84109L259.14 6.81108L268.07 38.8011L277.15 6.81108L277.17 6.66109L278.63 0.621094L289.33 0.691086V6.81108H283.56L271.35 50.0911H264.35L253.35 11.4211L242.42 50.0911H235.58V50.1011Z" fill="white"/>
<path d="M291.66 43.67V21.52H286.39V15.58H298.34V43.67H303.61V49.61H286.38V43.67H291.66ZM290.71 4.01001C290.71 2.93001 291.09 1.99001 291.85 1.20001C292.61 0.400012 293.58 0 294.75 0C295.85 0 296.8 0.390004 297.6 1.16C298.4 1.93 298.8 2.88001 298.8 4.01001C298.8 5.14001 298.4 6.09 297.6 6.88C296.8 7.67 295.85 8.06 294.75 8.06C293.63 8.06 292.67 7.66 291.88 6.86C291.1 6.06 290.71 5.11001 290.71 4.01001Z" fill="white"/>
<path d="M307.23 21.5203V15.5803H311.66V10.3403L318.34 10.3203V15.5803H324.63V21.5203H318.34V38.0403C318.34 40.6903 318.49 42.3203 318.78 42.9403C319.07 43.5603 319.81 43.8703 320.98 43.8703C322.22 43.8703 323.44 43.6403 324.64 43.1703V49.2503C322.93 49.8603 321.22 50.1603 319.51 50.1603C317.47 50.1603 315.82 49.7103 314.55 48.8103C313.28 47.9103 312.49 46.7803 312.16 45.4203C311.83 44.0603 311.67 41.7203 311.67 38.3903V21.5103H307.23V21.5203Z" fill="white"/>
<path d="M334.41 43.6709V6.65094H328.26V0.710938H341.09V19.4809C345.1 16.2509 348.91 14.6309 352.52 14.6309C354.77 14.6309 356.62 15.1009 358.07 16.0409C359.52 16.9809 360.51 18.2109 361.04 19.7509C361.57 21.2909 361.83 23.5309 361.83 26.4809L361.75 43.6709C367.3 49.3409 377.78 49.1109 385.94 32.2709C386.01 35.6509 386.08 39.0309 386.15 42.4109C383.35 48.7309 377.46 53.0709 370.75 53.7109C361.91 54.5509 356.04 48.5309 355.34 47.7809C355.28 41.4609 355.22 35.1309 355.15 28.8109C355.15 26.2309 355.07 24.5109 354.9 23.6409C354.74 22.7709 354.28 22.0609 353.55 21.5009C352.82 20.9409 351.94 20.6609 350.93 20.6609C348.35 20.6609 345.07 22.1209 341.09 25.0509V43.6809H347V49.6209H328.26V43.6809H334.41V43.6709Z" fill="white"/>
</svg>
